<svg id="_x33_0" enable-background="new 0 0 64 64" height="512" viewBox="0 0 64 64" width="512" xmlns="http://www.w3.org/2000/svg"><g><g><path d="m44.49 51.51c2.05 2.06 3.04 4.38 2.22 5.2-.17.18-.42.27-.71.29l-7-7c.02-.29.11-.54.29-.71.82-.82 3.14.17 5.2 2.22z" fill="#f0bc5e"/></g><g><path d="m50 39 7 7c-.02.29-.11.54-.29.71-.82.82-3.14-.17-5.2-2.22-2.05-2.06-3.04-4.38-2.22-5.2.17-.18.42-.27.71-.29z" fill="#f0bc5e"/></g><g><ellipse cx="48" cy="48" fill="#f0bc5e" rx="2.107" ry="5.247" transform="matrix(.707 -.707 .707 .707 -19.882 48)"/></g><g><path d="m20 15-5 5c-1.28-1.28-2-3.02-2-4.83v-2.17h2.17c1.81 0 3.55.72 4.83 2z" fill="#f0bc5e"/></g><g><path d="m25.047 49.35-2.047-1.35v-2l1-6-6 1h-2l-1.349-2.047 38.899-36.904 9.602-1.2-1.2 9.601z" fill="#f0bc5e"/></g><g><path d="m9 12c1.654 0 3-1.346 3-3s-1.346-3-3-3-3 1.346-3 3 1.346 3 3 3zm0-4c.551 0 1 .448 1 1s-.449 1-1 1-1-.448-1-1 .449-1 1-1z"/><path d="m10.313 22.727 10.438 10.439 1.451-1.377-5.788-5.789 9.586-9.586 6.041 6.041 1.451-1.377-6.318-6.318c1.072-.458 1.826-1.522 1.826-2.76 0-.446-.104-.865-.279-1.246l2.601-2.662c3.283-3.283 7.649-5.092 12.293-5.092 2.511 0 4.992.551 7.256 1.59l1.548-1.468c-2.713-1.385-5.738-2.122-8.804-2.122-5.178 0-10.046 2.017-13.715 5.686l-2.576 2.636c-.401-.2-.847-.322-1.324-.322-1.238 0-2.302.754-2.76 1.826l-.513-.513c-4.733-4.733-10.704-7.928-17.266-9.241-.24-.048-.486-.072-.732-.072-2.056 0-3.729 1.673-3.729 3.729 0 .247.024.494.073.731 1.312 6.564 4.508 12.535 9.24 17.267zm15.687-11.727c.551 0 1 .448 1 1s-.449 1-1 1-1-.448-1-1 .449-1 1-1zm-1.414 4-9.586 9.586-1.586-1.586 9.586-9.586zm-19.517-11.967c6.174 1.235 11.791 4.241 16.244 8.693l.273.274-9.586 9.586-.273-.273c-4.452-4.453-7.458-10.069-8.694-16.248-.022-.11-.033-.222-.033-.336 0-1.068 1.028-1.905 2.069-1.696z"/><path d="m55 38c0-.462-.113-.894-.301-1.285l2.623-2.623c3.662-3.662 5.678-8.529 5.678-13.707 0-3.066-.737-6.092-2.121-8.804l-1.469 1.548c1.04 2.264 1.59 4.744 1.59 7.256 0 4.644-1.808 9.009-5.092 12.293l-2.623 2.623c-.391-.188-.823-.301-1.285-.301-1.238 0-2.302.754-2.76 1.826l-6.318-6.318-1.377 1.451 3.041 3.041-9.586 9.586-2.788-2.788-1.377 1.451 19.751 19.751h.414c6.617 0 12-5.383 12-12v-.414l-9.826-9.826c1.072-.458 1.826-1.522 1.826-2.76zm-3-1c.551 0 1 .448 1 1s-.449 1-1 1-1-.448-1-1 .449-1 1-1zm-15.586 9 9.586-9.586 1.586 1.586-9.586 9.586zm14.097 14.097-1.4-1.4c1.236-4.668 4.918-8.349 9.586-9.586l1.399 1.399c-4.481 1.553-8.034 5.105-9.585 9.587zm1.835.812c1.339-4.032 4.53-7.224 8.563-8.562-.6 4.438-4.124 7.962-8.563 8.562zm4.751-13.398c-4.482 1.552-8.034 5.104-9.586 9.586l-8.097-8.097 9.586-9.586z"/><path d="m24 46.084.934-5.603 28.773-28.773-1.414-1.414-28.773 28.772-5.604.934h-1.298l-2.72-5.438-3.072 7.68 1.76 1.758-11 11 1 1-.464.465c-.724.723-1.122 1.683-1.122 2.707 0 2.11 1.717 3.828 3.829 3.828 1.022 0 1.983-.398 2.707-1.121l.464-.465 1 1 11-11 1.76 1.76 7.68-3.072-5.44-2.72zm-5.131-4.215 3.915-.652-.653 3.914-3.915.652zm-3.869 11.717-2 2v-2.586h2zm-4-4.586v2h-2.586l2-2zm0 4v2.586l-2.586-2.586zm2-2v-2h2v2zm1.102-11.561 1.28 2.561h1.438l-.486 2.919-3.16-3.16zm.898 6.976v.585h-2v-.586l1-1zm-8.878 14.05c-.346.345-.805.535-1.293.535-1.009 0-1.829-.82-1.829-1.828 0-.481.195-.952.536-1.293l.464-.465 2.586 2.586zm-1.708-5.465 1.586-1.586 4.586 4.586-1.586 1.586zm13.172-4h-.586v-2h.585l1 1zm6.975-1.102-2.32.928-3.159-3.159 2.918-.486v1.438z"/></g></g></svg>